<svg width="1363" height="163" viewBox="0 0 1363 163" fill="none" xmlns="http://www.w3.org/2000/svg">
<path d="M0 15C0 6.71573 6.71573 0 15 0H37V163H15C6.71573 163 0 156.284 0 148V15Z" fill="#424242"/>
<rect width="1097" height="163" transform="translate(37)" fill="#F0F0F0"/>
<path d="M104.414 55.3398H107.918C107.848 56.4883 107.531 57.5078 106.969 58.3984C106.414 59.2891 105.637 59.9844 104.637 60.4844C103.645 60.9844 102.449 61.2344 101.051 61.2344C99.957 61.2344 98.9766 61.0469 98.1094 60.6719C97.2422 60.2891 96.5 59.7422 95.8828 59.0312C95.2734 58.3203 94.8086 57.4609 94.4883 56.4531C94.168 55.4453 94.0078 54.3164 94.0078 53.0664V51.8828C94.0078 50.6328 94.1719 49.5039 94.5 48.4961C94.8359 47.4805 95.3125 46.6172 95.9297 45.9062C96.5547 45.1953 97.3008 44.6484 98.168 44.2656C99.0352 43.8828 100.004 43.6914 101.074 43.6914C102.496 43.6914 103.695 43.9492 104.672 44.4648C105.656 44.9805 106.418 45.6914 106.957 46.5977C107.504 47.5039 107.832 48.5352 107.941 49.6914H104.426C104.387 49.0039 104.25 48.4219 104.016 47.9453C103.781 47.4609 103.426 47.0977 102.949 46.8555C102.48 46.6055 101.855 46.4805 101.074 46.4805C100.488 46.4805 99.9766 46.5898 99.5391 46.8086C99.1016 47.0273 98.7344 47.3594 98.4375 47.8047C98.1406 48.25 97.918 48.8125 97.7695 49.4922C97.6289 50.1641 97.5586 50.9531 97.5586 51.8594V53.0664C97.5586 53.9492 97.625 54.7266 97.7578 55.3984C97.8906 56.0625 98.0938 56.625 98.3672 57.0859C98.6484 57.5391 99.0078 57.8828 99.4453 58.1172C99.8906 58.3438 100.426 58.457 101.051 58.457C101.785 58.457 102.391 58.3398 102.867 58.1055C103.344 57.8711 103.707 57.5234 103.957 57.0625C104.215 56.6016 104.367 56.0273 104.414 55.3398ZM109.477 54.7891V54.543C109.477 53.6133 109.609 52.7578 109.875 51.9766C110.141 51.1875 110.527 50.5039 111.035 49.9258C111.543 49.3477 112.168 48.8984 112.91 48.5781C113.652 48.25 114.504 48.0859 115.465 48.0859C116.426 48.0859 117.281 48.25 118.031 48.5781C118.781 48.8984 119.41 49.3477 119.918 49.9258C120.434 50.5039 120.824 51.1875 121.09 51.9766C121.355 52.7578 121.488 53.6133 121.488 54.543V54.7891C121.488 55.7109 121.355 56.5664 121.09 57.3555C120.824 58.1367 120.434 58.8203 119.918 59.4062C119.41 59.9844 118.785 60.4336 118.043 60.7539C117.301 61.0742 116.449 61.2344 115.488 61.2344C114.527 61.2344 113.672 61.0742 112.922 60.7539C112.18 60.4336 111.551 59.9844 111.035 59.4062C110.527 58.8203 110.141 58.1367 109.875 57.3555C109.609 56.5664 109.477 55.7109 109.477 54.7891ZM112.852 54.543V54.7891C112.852 55.3203 112.898 55.8164 112.992 56.2773C113.086 56.7383 113.234 57.1445 113.438 57.4961C113.648 57.8398 113.922 58.1094 114.258 58.3047C114.594 58.5 115.004 58.5977 115.488 58.5977C115.957 58.5977 116.359 58.5 116.695 58.3047C117.031 58.1094 117.301 57.8398 117.504 57.4961C117.707 57.1445 117.855 56.7383 117.949 56.2773C118.051 55.8164 118.102 55.3203 118.102 54.7891V54.543C118.102 54.0273 118.051 53.543 117.949 53.0898C117.855 52.6289 117.703 52.2227 117.492 51.8711C117.289 51.5117 117.02 51.2305 116.684 51.0273C116.348 50.8242 115.941 50.7227 115.465 50.7227C114.988 50.7227 114.582 50.8242 114.246 51.0273C113.918 51.2305 113.648 51.5117 113.438 51.8711C113.234 52.2227 113.086 52.6289 112.992 53.0898C112.898 53.543 112.852 54.0273 112.852 54.543ZM126.867 51.0273V61H123.492V48.3203H126.656L126.867 51.0273ZM126.375 54.2148H125.461C125.461 53.2773 125.582 52.4336 125.824 51.6836C126.066 50.9258 126.406 50.2812 126.844 49.75C127.281 49.2109 127.801 48.8008 128.402 48.5195C129.012 48.2305 129.691 48.0859 130.441 48.0859C131.035 48.0859 131.578 48.1719 132.07 48.3438C132.562 48.5156 132.984 48.7891 133.336 49.1641C133.695 49.5391 133.969 50.0352 134.156 50.6523C134.352 51.2695 134.449 52.0234 134.449 52.9141V61H131.051V52.9023C131.051 52.3398 130.973 51.9023 130.816 51.5898C130.66 51.2773 130.43 51.0586 130.125 50.9336C129.828 50.8008 129.461 50.7344 129.023 50.7344C128.57 50.7344 128.176 50.8242 127.84 51.0039C127.512 51.1836 127.238 51.4336 127.02 51.7539C126.809 52.0664 126.648 52.4336 126.539 52.8555C126.43 53.2773 126.375 53.7305 126.375 54.2148ZM143.227 48.3203V50.7109H135.844V48.3203H143.227ZM137.672 45.1914H141.047V57.1797C141.047 57.5469 141.094 57.8281 141.188 58.0234C141.289 58.2188 141.438 58.3555 141.633 58.4336C141.828 58.5039 142.074 58.5391 142.371 58.5391C142.582 58.5391 142.77 58.5312 142.934 58.5156C143.105 58.4922 143.25 58.4688 143.367 58.4453L143.379 60.9297C143.09 61.0234 142.777 61.0977 142.441 61.1523C142.105 61.207 141.734 61.2344 141.328 61.2344C140.586 61.2344 139.938 61.1133 139.383 60.8711C138.836 60.6211 138.414 60.2227 138.117 59.6758C137.82 59.1289 137.672 58.4102 137.672 57.5195V45.1914ZM151.992 58.1406V52.4922C151.992 52.0859 151.926 51.7383 151.793 51.4492C151.66 51.1523 151.453 50.9219 151.172 50.7578C150.898 50.5938 150.543 50.5117 150.105 50.5117C149.73 50.5117 149.406 50.5781 149.133 50.7109C148.859 50.8359 148.648 51.0195 148.5 51.2617C148.352 51.4961 148.277 51.7734 148.277 52.0938H144.902C144.902 51.5547 145.027 51.043 145.277 50.5586C145.527 50.0742 145.891 49.6484 146.367 49.2812C146.844 48.9062 147.41 48.6133 148.066 48.4023C148.73 48.1914 149.473 48.0859 150.293 48.0859C151.277 48.0859 152.152 48.25 152.918 48.5781C153.684 48.9062 154.285 49.3984 154.723 50.0547C155.168 50.7109 155.391 51.5312 155.391 52.5156V57.9414C155.391 58.6367 155.434 59.207 155.52 59.6523C155.605 60.0898 155.73 60.4727 155.895 60.8008V61H152.484C152.32 60.6562 152.195 60.2266 152.109 59.7109C152.031 59.1875 151.992 58.6641 151.992 58.1406ZM152.438 53.2773L152.461 55.1875H150.574C150.129 55.1875 149.742 55.2383 149.414 55.3398C149.086 55.4414 148.816 55.5859 148.605 55.7734C148.395 55.9531 148.238 56.1641 148.137 56.4062C148.043 56.6484 147.996 56.9141 147.996 57.2031C147.996 57.4922 148.062 57.7539 148.195 57.9883C148.328 58.2148 148.52 58.3945 148.77 58.5273C149.02 58.6523 149.312 58.7148 149.648 58.7148C150.156 58.7148 150.598 58.6133 150.973 58.4102C151.348 58.207 151.637 57.957 151.84 57.6602C152.051 57.3633 152.16 57.082 152.168 56.8164L153.059 58.2461C152.934 58.5664 152.762 58.8984 152.543 59.2422C152.332 59.5859 152.062 59.9102 151.734 60.2148C151.406 60.5117 151.012 60.7578 150.551 60.9531C150.09 61.1406 149.543 61.2344 148.91 61.2344C148.105 61.2344 147.375 61.0742 146.719 60.7539C146.07 60.4258 145.555 59.9766 145.172 59.4062C144.797 58.8281 144.609 58.1719 144.609 57.4375C144.609 56.7734 144.734 56.1836 144.984 55.668C145.234 55.1523 145.602 54.7188 146.086 54.3672C146.578 54.0078 147.191 53.7383 147.926 53.5586C148.66 53.3711 149.512 53.2773 150.48 53.2773H152.438ZM163.23 58.5977C163.645 58.5977 164.012 58.5195 164.332 58.3633C164.652 58.1992 164.902 57.9727 165.082 57.6836C165.27 57.3867 165.367 57.0391 165.375 56.6406H168.551C168.543 57.5312 168.305 58.3242 167.836 59.0195C167.367 59.707 166.738 60.25 165.949 60.6484C165.16 61.0391 164.277 61.2344 163.301 61.2344C162.316 61.2344 161.457 61.0703 160.723 60.7422C159.996 60.4141 159.391 59.9609 158.906 59.3828C158.422 58.7969 158.059 58.1172 157.816 57.3438C157.574 56.5625 157.453 55.7266 157.453 54.8359V54.4961C157.453 53.5977 157.574 52.7617 157.816 51.9883C158.059 51.207 158.422 50.5273 158.906 49.9492C159.391 49.3633 159.996 48.9062 160.723 48.5781C161.449 48.25 162.301 48.0859 163.277 48.0859C164.316 48.0859 165.227 48.2852 166.008 48.6836C166.797 49.082 167.414 49.6523 167.859 50.3945C168.312 51.1289 168.543 52 168.551 53.0078H165.375C165.367 52.5859 165.277 52.2031 165.105 51.8594C164.941 51.5156 164.699 51.2422 164.379 51.0391C164.066 50.8281 163.68 50.7227 163.219 50.7227C162.727 50.7227 162.324 50.8281 162.012 51.0391C161.699 51.2422 161.457 51.5234 161.285 51.8828C161.113 52.2344 160.992 52.6367 160.922 53.0898C160.859 53.5352 160.828 54.0039 160.828 54.4961V54.8359C160.828 55.3281 160.859 55.8008 160.922 56.2539C160.984 56.707 161.102 57.1094 161.273 57.4609C161.453 57.8125 161.699 58.0898 162.012 58.293C162.324 58.4961 162.73 58.5977 163.23 58.5977ZM176.719 48.3203V50.7109H169.336V48.3203H176.719ZM171.164 45.1914H174.539V57.1797C174.539 57.5469 174.586 57.8281 174.68 58.0234C174.781 58.2188 174.93 58.3555 175.125 58.4336C175.32 58.5039 175.566 58.5391 175.863 58.5391C176.074 58.5391 176.262 58.5312 176.426 58.5156C176.598 58.4922 176.742 58.4688 176.859 58.4453L176.871 60.9297C176.582 61.0234 176.27 61.0977 175.934 61.1523C175.598 61.207 175.227 61.2344 174.82 61.2344C174.078 61.2344 173.43 61.1133 172.875 60.8711C172.328 60.6211 171.906 60.2227 171.609 59.6758C171.312 59.1289 171.164 58.4102 171.164 57.5195V45.1914ZM185.496 57.4961C185.496 57.2539 185.426 57.0352 185.285 56.8398C185.145 56.6445 184.883 56.4648 184.5 56.3008C184.125 56.1289 183.582 55.9727 182.871 55.832C182.23 55.6914 181.633 55.5156 181.078 55.3047C180.531 55.0859 180.055 54.8242 179.648 54.5195C179.25 54.2148 178.938 53.8555 178.711 53.4414C178.484 53.0195 178.371 52.5391 178.371 52C178.371 51.4688 178.484 50.9688 178.711 50.5C178.945 50.0312 179.277 49.6172 179.707 49.2578C180.145 48.8906 180.676 48.6055 181.301 48.4023C181.934 48.1914 182.645 48.0859 183.434 48.0859C184.535 48.0859 185.48 48.2617 186.27 48.6133C187.066 48.9648 187.676 49.4492 188.098 50.0664C188.527 50.6758 188.742 51.3711 188.742 52.1523H185.367C185.367 51.8242 185.297 51.5312 185.156 51.2734C185.023 51.0078 184.812 50.8008 184.523 50.6523C184.242 50.4961 183.875 50.418 183.422 50.418C183.047 50.418 182.723 50.4844 182.449 50.6172C182.176 50.7422 181.965 50.9141 181.816 51.1328C181.676 51.3438 181.605 51.5781 181.605 51.8359C181.605 52.0312 181.645 52.207 181.723 52.3633C181.809 52.5117 181.945 52.6484 182.133 52.7734C182.32 52.8984 182.562 53.0156 182.859 53.125C183.164 53.2266 183.539 53.3203 183.984 53.4062C184.898 53.5938 185.715 53.8398 186.434 54.1445C187.152 54.4414 187.723 54.8477 188.145 55.3633C188.566 55.8711 188.777 56.5391 188.777 57.3672C188.777 57.9297 188.652 58.4453 188.402 58.9141C188.152 59.3828 187.793 59.793 187.324 60.1445C186.855 60.4883 186.293 60.7578 185.637 60.9531C184.988 61.1406 184.258 61.2344 183.445 61.2344C182.266 61.2344 181.266 61.0234 180.445 60.6016C179.633 60.1797 179.016 59.6445 178.594 58.9961C178.18 58.3398 177.973 57.668 177.973 56.9805H181.172C181.188 57.4414 181.305 57.8125 181.523 58.0938C181.75 58.375 182.035 58.5781 182.379 58.7031C182.73 58.8281 183.109 58.8906 183.516 58.8906C183.953 58.8906 184.316 58.832 184.605 58.7148C184.895 58.5898 185.113 58.4258 185.262 58.2227C185.418 58.0117 185.496 57.7695 185.496 57.4961ZM197.859 53.5117H193.477L193.453 51.0977H197.133C197.781 51.0977 198.312 51.0156 198.727 50.8516C199.141 50.6797 199.449 50.4336 199.652 50.1133C199.863 49.7852 199.969 49.3867 199.969 48.918C199.969 48.3867 199.867 47.957 199.664 47.6289C199.469 47.3008 199.16 47.0625 198.738 46.9141C198.324 46.7656 197.789 46.6914 197.133 46.6914H194.695V61H191.18V43.9375H197.133C198.125 43.9375 199.012 44.0312 199.793 44.2188C200.582 44.4062 201.25 44.6914 201.797 45.0742C202.344 45.457 202.762 45.9414 203.051 46.5273C203.34 47.1055 203.484 47.793 203.484 48.5898C203.484 49.293 203.324 49.9414 203.004 50.5352C202.691 51.1289 202.195 51.6133 201.516 51.9883C200.844 52.3633 199.965 52.5703 198.879 52.6094L197.859 53.5117ZM197.707 61H192.516L193.887 58.2578H197.707C198.324 58.2578 198.828 58.1602 199.219 57.9648C199.609 57.7617 199.898 57.4883 200.086 57.1445C200.273 56.8008 200.367 56.4062 200.367 55.9609C200.367 55.4609 200.281 55.0273 200.109 54.6602C199.945 54.293 199.68 54.0117 199.312 53.8164C198.945 53.6133 198.461 53.5117 197.859 53.5117H194.473L194.496 51.0977H198.715L199.523 52.0469C200.562 52.0312 201.398 52.2148 202.031 52.5977C202.672 52.9727 203.137 53.4609 203.426 54.0625C203.723 54.6641 203.871 55.3086 203.871 55.9961C203.871 57.0898 203.633 58.0117 203.156 58.7617C202.68 59.5039 201.98 60.0625 201.059 60.4375C200.145 60.8125 199.027 61 197.707 61ZM205.758 54.7891V54.543C205.758 53.6133 205.891 52.7578 206.156 51.9766C206.422 51.1875 206.809 50.5039 207.316 49.9258C207.824 49.3477 208.449 48.8984 209.191 48.5781C209.934 48.25 210.785 48.0859 211.746 48.0859C212.707 48.0859 213.562 48.25 214.312 48.5781C215.062 48.8984 215.691 49.3477 216.199 49.9258C216.715 50.5039 217.105 51.1875 217.371 51.9766C217.637 52.7578 217.77 53.6133 217.77 54.543V54.7891C217.77 55.7109 217.637 56.5664 217.371 57.3555C217.105 58.1367 216.715 58.8203 216.199 59.4062C215.691 59.9844 215.066 60.4336 214.324 60.7539C213.582 61.0742 212.73 61.2344 211.77 61.2344C210.809 61.2344 209.953 61.0742 209.203 60.7539C208.461 60.4336 207.832 59.9844 207.316 59.4062C206.809 58.8203 206.422 58.1367 206.156 57.3555C205.891 56.5664 205.758 55.7109 205.758 54.7891ZM209.133 54.543V54.7891C209.133 55.3203 209.18 55.8164 209.273 56.2773C209.367 56.7383 209.516 57.1445 209.719 57.4961C209.93 57.8398 210.203 58.1094 210.539 58.3047C210.875 58.5 211.285 58.5977 211.77 58.5977C212.238 58.5977 212.641 58.5 212.977 58.3047C213.312 58.1094 213.582 57.8398 213.785 57.4961C213.988 57.1445 214.137 56.7383 214.23 56.2773C214.332 55.8164 214.383 55.3203 214.383 54.7891V54.543C214.383 54.0273 214.332 53.543 214.23 53.0898C214.137 52.6289 213.984 52.2227 213.773 51.8711C213.57 51.5117 213.301 51.2305 212.965 51.0273C212.629 50.8242 212.223 50.7227 211.746 50.7227C211.27 50.7227 210.863 50.8242 210.527 51.0273C210.199 51.2305 209.93 51.5117 209.719 51.8711C209.516 52.2227 209.367 52.6289 209.273 53.0898C209.18 53.543 209.133 54.0273 209.133 54.543ZM219.305 54.7891V54.543C219.305 53.6133 219.438 52.7578 219.703 51.9766C219.969 51.1875 220.355 50.5039 220.863 49.9258C221.371 49.3477 221.996 48.8984 222.738 48.5781C223.48 48.25 224.332 48.0859 225.293 48.0859C226.254 48.0859 227.109 48.25 227.859 48.5781C228.609 48.8984 229.238 49.3477 229.746 49.9258C230.262 50.5039 230.652 51.1875 230.918 51.9766C231.184 52.7578 231.316 53.6133 231.316 54.543V54.7891C231.316 55.7109 231.184 56.5664 230.918 57.3555C230.652 58.1367 230.262 58.8203 229.746 59.4062C229.238 59.9844 228.613 60.4336 227.871 60.7539C227.129 61.0742 226.277 61.2344 225.316 61.2344C224.355 61.2344 223.5 61.0742 222.75 60.7539C222.008 60.4336 221.379 59.9844 220.863 59.4062C220.355 58.8203 219.969 58.1367 219.703 57.3555C219.438 56.5664 219.305 55.7109 219.305 54.7891ZM222.68 54.543V54.7891C222.68 55.3203 222.727 55.8164 222.82 56.2773C222.914 56.7383 223.062 57.1445 223.266 57.4961C223.477 57.8398 223.75 58.1094 224.086 58.3047C224.422 58.5 224.832 58.5977 225.316 58.5977C225.785 58.5977 226.188 58.5 226.523 58.3047C226.859 58.1094 227.129 57.8398 227.332 57.4961C227.535 57.1445 227.684 56.7383 227.777 56.2773C227.879 55.8164 227.93 55.3203 227.93 54.7891V54.543C227.93 54.0273 227.879 53.543 227.777 53.0898C227.684 52.6289 227.531 52.2227 227.32 51.8711C227.117 51.5117 226.848 51.2305 226.512 51.0273C226.176 50.8242 225.77 50.7227 225.293 50.7227C224.816 50.7227 224.41 50.8242 224.074 51.0273C223.746 51.2305 223.477 51.5117 223.266 51.8711C223.062 52.2227 222.914 52.6289 222.82 53.0898C222.727 53.543 222.68 54.0273 222.68 54.543ZM236.766 42.9883V61H233.391V42.9883H236.766ZM244.758 48.3203L239.25 54.6016L236.297 57.5898L235.066 55.1523L237.41 52.1758L240.703 48.3203H244.758ZM241.254 61L237.504 55.1406L239.836 53.1016L245.145 61H241.254Z" fill="#888888"/>
<path d="M109.219 107.422H100.734V101.07H109.219C110.375 101.07 111.312 100.875 112.031 100.484C112.75 100.094 113.273 99.5547 113.602 98.8672C113.945 98.1641 114.117 97.375 114.117 96.5C114.117 95.5625 113.945 94.6953 113.602 93.8984C113.273 93.1016 112.75 92.4609 112.031 91.9766C111.312 91.4766 110.375 91.2266 109.219 91.2266H103.828V119H95.6016V84.875H109.219C111.953 84.875 114.305 85.375 116.273 86.375C118.258 87.375 119.781 88.75 120.844 90.5C121.906 92.2344 122.438 94.2188 122.438 96.4531C122.438 98.6562 121.906 100.578 120.844 102.219C119.781 103.859 118.258 105.141 116.273 106.062C114.305 106.969 111.953 107.422 109.219 107.422ZM134.461 99.9219V119H126.562V93.6406H133.945L134.461 99.9219ZM141.961 93.4531L141.82 100.789C141.508 100.758 141.086 100.719 140.555 100.672C140.023 100.625 139.578 100.602 139.219 100.602C138.297 100.602 137.5 100.711 136.828 100.93C136.172 101.133 135.625 101.445 135.188 101.867C134.766 102.273 134.453 102.789 134.25 103.414C134.062 104.039 133.977 104.766 133.992 105.594L132.562 104.656C132.562 102.953 132.727 101.406 133.055 100.016C133.398 98.6094 133.883 97.3984 134.508 96.3828C135.133 95.3516 135.891 94.5625 136.781 94.0156C137.672 93.4531 138.672 93.1719 139.781 93.1719C140.172 93.1719 140.555 93.1953 140.93 93.2422C141.32 93.2891 141.664 93.3594 141.961 93.4531ZM142.852 106.578V106.086C142.852 104.227 143.117 102.516 143.648 100.953C144.18 99.375 144.961 98.0078 145.992 96.8516C147.023 95.6953 148.297 94.7969 149.812 94.1562C151.328 93.5 153.078 93.1719 155.062 93.1719C157.062 93.1719 158.82 93.5 160.336 94.1562C161.867 94.7969 163.148 95.6953 164.18 96.8516C165.211 98.0078 165.992 99.375 166.523 100.953C167.055 102.516 167.32 104.227 167.32 106.086V106.578C167.32 108.422 167.055 110.133 166.523 111.711C165.992 113.273 165.211 114.641 164.18 115.812C163.148 116.969 161.875 117.867 160.359 118.508C158.844 119.148 157.094 119.469 155.109 119.469C153.125 119.469 151.367 119.148 149.836 118.508C148.305 117.867 147.023 116.969 145.992 115.812C144.961 114.641 144.18 113.273 143.648 111.711C143.117 110.133 142.852 108.422 142.852 106.578ZM150.75 106.086V106.578C150.75 107.531 150.82 108.422 150.961 109.25C151.102 110.078 151.336 110.805 151.664 111.43C151.992 112.039 152.438 112.516 153 112.859C153.562 113.203 154.266 113.375 155.109 113.375C155.938 113.375 156.625 113.203 157.172 112.859C157.734 112.516 158.18 112.039 158.508 111.43C158.836 110.805 159.07 110.078 159.211 109.25C159.352 108.422 159.422 107.531 159.422 106.578V106.086C159.422 105.164 159.352 104.297 159.211 103.484C159.07 102.656 158.836 101.93 158.508 101.305C158.18 100.664 157.734 100.164 157.172 99.8047C156.609 99.4453 155.906 99.2656 155.062 99.2656C154.234 99.2656 153.539 99.4453 152.977 99.8047C152.43 100.164 151.992 100.664 151.664 101.305C151.336 101.93 151.102 102.656 150.961 103.484C150.82 104.297 150.75 105.164 150.75 106.086ZM171.422 93.6406H179.344V119.82C179.344 121.852 178.953 123.562 178.172 124.953C177.391 126.359 176.273 127.422 174.82 128.141C173.367 128.875 171.633 129.242 169.617 129.242C168.945 129.242 168.328 129.211 167.766 129.148C167.188 129.102 166.555 129 165.867 128.844V122.867C166.273 122.93 166.648 122.977 166.992 123.008C167.336 123.055 167.711 123.078 168.117 123.078C168.836 123.078 169.438 122.961 169.922 122.727C170.406 122.492 170.773 122.133 171.023 121.648C171.289 121.164 171.422 120.555 171.422 119.82V93.6406ZM170.836 87.1016C170.836 85.9766 171.242 85.0547 172.055 84.3359C172.867 83.6172 173.922 83.2578 175.219 83.2578C176.516 83.2578 177.57 83.6172 178.383 84.3359C179.195 85.0547 179.602 85.9766 179.602 87.1016C179.602 88.2266 179.195 89.1484 178.383 89.8672C177.57 90.5859 176.516 90.9453 175.219 90.9453C173.922 90.9453 172.867 90.5859 172.055 89.8672C171.242 89.1484 170.836 88.2266 170.836 87.1016ZM196.102 119.469C194.039 119.469 192.195 119.148 190.57 118.508C188.945 117.852 187.57 116.953 186.445 115.812C185.336 114.672 184.484 113.359 183.891 111.875C183.312 110.391 183.023 108.82 183.023 107.164V106.273C183.023 104.414 183.281 102.695 183.797 101.117C184.312 99.5234 185.078 98.1328 186.094 96.9453C187.109 95.7578 188.383 94.8359 189.914 94.1797C191.445 93.5078 193.227 93.1719 195.258 93.1719C197.055 93.1719 198.664 93.4609 200.086 94.0391C201.508 94.6172 202.711 95.4453 203.695 96.5234C204.695 97.6016 205.453 98.9062 205.969 100.438C206.5 101.969 206.766 103.688 206.766 105.594V108.805H186.047V103.859H199.055V103.25C199.07 102.406 198.922 101.688 198.609 101.094C198.312 100.5 197.875 100.047 197.297 99.7344C196.719 99.4219 196.016 99.2656 195.188 99.2656C194.328 99.2656 193.617 99.4531 193.055 99.8281C192.508 100.203 192.078 100.719 191.766 101.375C191.469 102.016 191.258 102.758 191.133 103.602C191.008 104.445 190.945 105.336 190.945 106.273V107.164C190.945 108.102 191.07 108.953 191.32 109.719C191.586 110.484 191.961 111.141 192.445 111.688C192.945 112.219 193.539 112.633 194.227 112.93C194.93 113.227 195.727 113.375 196.617 113.375C197.695 113.375 198.758 113.172 199.805 112.766C200.852 112.359 201.75 111.688 202.5 110.75L206.086 115.016C205.57 115.75 204.836 116.461 203.883 117.148C202.945 117.836 201.82 118.398 200.508 118.836C199.195 119.258 197.727 119.469 196.102 119.469ZM220.688 113.375C221.422 113.375 222.047 113.242 222.562 112.977C223.094 112.695 223.492 112.305 223.758 111.805C224.039 111.289 224.172 110.672 224.156 109.953H231.586C231.602 111.859 231.133 113.531 230.18 114.969C229.242 116.391 227.961 117.5 226.336 118.297C224.727 119.078 222.906 119.469 220.875 119.469C218.891 119.469 217.156 119.148 215.672 118.508C214.188 117.852 212.945 116.945 211.945 115.789C210.961 114.617 210.219 113.25 209.719 111.688C209.234 110.125 208.992 108.43 208.992 106.602V106.062C208.992 104.234 209.234 102.539 209.719 100.977C210.219 99.3984 210.961 98.0312 211.945 96.875C212.945 95.7031 214.18 94.7969 215.648 94.1562C217.133 93.5 218.859 93.1719 220.828 93.1719C222.938 93.1719 224.797 93.5703 226.406 94.3672C228.031 95.1641 229.305 96.3203 230.227 97.8359C231.148 99.3516 231.602 101.188 231.586 103.344H224.156C224.172 102.578 224.055 101.891 223.805 101.281C223.555 100.672 223.164 100.188 222.633 99.8281C222.117 99.4531 221.453 99.2656 220.641 99.2656C219.828 99.2656 219.172 99.4453 218.672 99.8047C218.172 100.164 217.789 100.664 217.523 101.305C217.273 101.93 217.102 102.648 217.008 103.461C216.93 104.273 216.891 105.141 216.891 106.062V106.602C216.891 107.539 216.93 108.422 217.008 109.25C217.102 110.062 217.281 110.781 217.547 111.406C217.812 112.016 218.195 112.5 218.695 112.859C219.195 113.203 219.859 113.375 220.688 113.375ZM248.32 93.6406V99.125H233.039V93.6406H248.32ZM236.25 87.3359H244.148V110.727C244.148 111.398 244.227 111.922 244.383 112.297C244.539 112.656 244.805 112.914 245.18 113.07C245.57 113.211 246.086 113.281 246.727 113.281C247.18 113.281 247.555 113.273 247.852 113.258C248.148 113.227 248.43 113.188 248.695 113.141V118.789C248.023 119.008 247.32 119.172 246.586 119.281C245.852 119.406 245.07 119.469 244.242 119.469C242.555 119.469 241.109 119.203 239.906 118.672C238.719 118.141 237.812 117.305 237.188 116.164C236.562 115.023 236.25 113.539 236.25 111.711V87.3359ZM274.875 119H267.305L267.352 112.672H274.875C276.438 112.672 277.758 112.297 278.836 111.547C279.93 110.797 280.758 109.68 281.32 108.195C281.898 106.695 282.188 104.852 282.188 102.664V101.188C282.188 99.5469 282.023 98.1094 281.695 96.875C281.383 95.625 280.914 94.5859 280.289 93.7578C279.664 92.9141 278.883 92.2812 277.945 91.8594C277.023 91.4375 275.961 91.2266 274.758 91.2266H267.164V84.875H274.758C277.07 84.875 279.188 85.2734 281.109 86.0703C283.047 86.8516 284.719 87.9766 286.125 89.4453C287.547 90.8984 288.641 92.625 289.406 94.625C290.188 96.6094 290.578 98.8125 290.578 101.234V102.664C290.578 105.07 290.188 107.273 289.406 109.273C288.641 111.273 287.555 113 286.148 114.453C284.742 115.906 283.078 117.031 281.156 117.828C279.25 118.609 277.156 119 274.875 119ZM272.016 84.875V119H263.789V84.875H272.016ZM306.773 119.469C304.711 119.469 302.867 119.148 301.242 118.508C299.617 117.852 298.242 116.953 297.117 115.812C296.008 114.672 295.156 113.359 294.562 111.875C293.984 110.391 293.695 108.82 293.695 107.164V106.273C293.695 104.414 293.953 102.695 294.469 101.117C294.984 99.5234 295.75 98.1328 296.766 96.9453C297.781 95.7578 299.055 94.8359 300.586 94.1797C302.117 93.5078 303.898 93.1719 305.93 93.1719C307.727 93.1719 309.336 93.4609 310.758 94.0391C312.18 94.6172 313.383 95.4453 314.367 96.5234C315.367 97.6016 316.125 98.9062 316.641 100.438C317.172 101.969 317.438 103.688 317.438 105.594V108.805H296.719V103.859H309.727V103.25C309.742 102.406 309.594 101.688 309.281 101.094C308.984 100.5 308.547 100.047 307.969 99.7344C307.391 99.4219 306.688 99.2656 305.859 99.2656C305 99.2656 304.289 99.4531 303.727 99.8281C303.18 100.203 302.75 100.719 302.438 101.375C302.141 102.016 301.93 102.758 301.805 103.602C301.68 104.445 301.617 105.336 301.617 106.273V107.164C301.617 108.102 301.742 108.953 301.992 109.719C302.258 110.484 302.633 111.141 303.117 111.688C303.617 112.219 304.211 112.633 304.898 112.93C305.602 113.227 306.398 113.375 307.289 113.375C308.367 113.375 309.43 113.172 310.477 112.766C311.523 112.359 312.422 111.688 313.172 110.75L316.758 115.016C316.242 115.75 315.508 116.461 314.555 117.148C313.617 117.836 312.492 118.398 311.18 118.836C309.867 119.258 308.398 119.469 306.773 119.469ZM333.938 111.875C333.938 111.438 333.789 111.062 333.492 110.75C333.211 110.422 332.711 110.125 331.992 109.859C331.273 109.578 330.266 109.297 328.969 109.016C327.734 108.75 326.57 108.398 325.477 107.961C324.398 107.523 323.453 106.992 322.641 106.367C321.828 105.742 321.188 105 320.719 104.141C320.266 103.281 320.039 102.297 320.039 101.188C320.039 100.109 320.266 99.0938 320.719 98.1406C321.188 97.1719 321.867 96.3203 322.758 95.5859C323.664 94.8359 324.766 94.25 326.062 93.8281C327.359 93.3906 328.836 93.1719 330.492 93.1719C332.773 93.1719 334.742 93.5234 336.398 94.2266C338.055 94.9141 339.328 95.8828 340.219 97.1328C341.125 98.3672 341.578 99.7969 341.578 101.422H333.68C333.68 100.781 333.57 100.234 333.352 99.7812C333.148 99.3281 332.812 98.9844 332.344 98.75C331.875 98.5 331.25 98.375 330.469 98.375C329.922 98.375 329.422 98.4766 328.969 98.6797C328.531 98.8828 328.18 99.1641 327.914 99.5234C327.648 99.8828 327.516 100.305 327.516 100.789C327.516 101.133 327.594 101.445 327.75 101.727C327.922 101.992 328.18 102.242 328.523 102.477C328.867 102.695 329.305 102.898 329.836 103.086C330.367 103.258 331.008 103.414 331.758 103.555C333.461 103.867 335.055 104.312 336.539 104.891C338.023 105.469 339.227 106.289 340.148 107.352C341.086 108.414 341.555 109.844 341.555 111.641C341.555 112.766 341.297 113.805 340.781 114.758C340.266 115.695 339.523 116.523 338.555 117.242C337.586 117.945 336.422 118.492 335.062 118.883C333.703 119.273 332.172 119.469 330.469 119.469C328.047 119.469 326 119.039 324.328 118.18C322.656 117.305 321.391 116.211 320.531 114.898C319.688 113.57 319.266 112.227 319.266 110.867H326.625C326.656 111.648 326.844 112.289 327.188 112.789C327.547 113.289 328.023 113.656 328.617 113.891C329.211 114.125 329.898 114.242 330.68 114.242C331.398 114.242 331.992 114.141 332.461 113.938C332.945 113.734 333.312 113.461 333.562 113.117C333.812 112.758 333.938 112.344 333.938 111.875ZM355.969 113.375C356.703 113.375 357.328 113.242 357.844 112.977C358.375 112.695 358.773 112.305 359.039 111.805C359.32 111.289 359.453 110.672 359.438 109.953H366.867C366.883 111.859 366.414 113.531 365.461 114.969C364.523 116.391 363.242 117.5 361.617 118.297C360.008 119.078 358.188 119.469 356.156 119.469C354.172 119.469 352.438 119.148 350.953 118.508C349.469 117.852 348.227 116.945 347.227 115.789C346.242 114.617 345.5 113.25 345 111.688C344.516 110.125 344.273 108.43 344.273 106.602V106.062C344.273 104.234 344.516 102.539 345 100.977C345.5 99.3984 346.242 98.0312 347.227 96.875C348.227 95.7031 349.461 94.7969 350.93 94.1562C352.414 93.5 354.141 93.1719 356.109 93.1719C358.219 93.1719 360.078 93.5703 361.688 94.3672C363.312 95.1641 364.586 96.3203 365.508 97.8359C366.43 99.3516 366.883 101.188 366.867 103.344H359.438C359.453 102.578 359.336 101.891 359.086 101.281C358.836 100.672 358.445 100.188 357.914 99.8281C357.398 99.4531 356.734 99.2656 355.922 99.2656C355.109 99.2656 354.453 99.4453 353.953 99.8047C353.453 100.164 353.07 100.664 352.805 101.305C352.555 101.93 352.383 102.648 352.289 103.461C352.211 104.273 352.172 105.141 352.172 106.062V106.602C352.172 107.539 352.211 108.422 352.289 109.25C352.383 110.062 352.562 110.781 352.828 111.406C353.094 112.016 353.477 112.5 353.977 112.859C354.477 113.203 355.141 113.375 355.969 113.375ZM378.211 99.9219V119H370.312V93.6406H377.695L378.211 99.9219ZM385.711 93.4531L385.57 100.789C385.258 100.758 384.836 100.719 384.305 100.672C383.773 100.625 383.328 100.602 382.969 100.602C382.047 100.602 381.25 100.711 380.578 100.93C379.922 101.133 379.375 101.445 378.938 101.867C378.516 102.273 378.203 102.789 378 103.414C377.812 104.039 377.727 104.766 377.742 105.594L376.312 104.656C376.312 102.953 376.477 101.406 376.805 100.016C377.148 98.6094 377.633 97.3984 378.258 96.3828C378.883 95.3516 379.641 94.5625 380.531 94.0156C381.422 93.4531 382.422 93.1719 383.531 93.1719C383.922 93.1719 384.305 93.1953 384.68 93.2422C385.07 93.2891 385.414 93.3594 385.711 93.4531ZM396.773 93.6406V119H388.852V93.6406H396.773ZM388.383 87.1016C388.383 85.9766 388.789 85.0547 389.602 84.3359C390.414 83.6172 391.469 83.2578 392.766 83.2578C394.062 83.2578 395.117 83.6172 395.93 84.3359C396.742 85.0547 397.148 85.9766 397.148 87.1016C397.148 88.2266 396.742 89.1484 395.93 89.8672C395.117 90.5859 394.062 90.9453 392.766 90.9453C391.469 90.9453 390.414 90.5859 389.602 89.8672C388.789 89.1484 388.383 88.2266 388.383 87.1016ZM409.617 98.5156V128.75H401.719V93.6406H409.078L409.617 98.5156ZM425.18 106.016V106.508C425.18 108.352 424.969 110.062 424.547 111.641C424.125 113.219 423.5 114.594 422.672 115.766C421.844 116.938 420.812 117.852 419.578 118.508C418.359 119.148 416.945 119.469 415.336 119.469C413.82 119.469 412.516 119.133 411.422 118.461C410.328 117.789 409.414 116.859 408.68 115.672C407.945 114.484 407.352 113.125 406.898 111.594C406.445 110.062 406.086 108.445 405.82 106.742V106.109C406.086 104.281 406.445 102.586 406.898 101.023C407.352 99.4453 407.945 98.0703 408.68 96.8984C409.414 95.7266 410.32 94.8125 411.398 94.1562C412.492 93.5 413.797 93.1719 415.312 93.1719C416.922 93.1719 418.336 93.4766 419.555 94.0859C420.789 94.6953 421.82 95.5703 422.648 96.7109C423.492 97.8359 424.125 99.1875 424.547 100.766C424.969 102.344 425.18 104.094 425.18 106.016ZM417.281 106.508V106.016C417.281 105.031 417.211 104.133 417.07 103.32C416.93 102.492 416.703 101.773 416.391 101.164C416.094 100.555 415.695 100.086 415.195 99.7578C414.695 99.4297 414.078 99.2656 413.344 99.2656C412.5 99.2656 411.789 99.3984 411.211 99.6641C410.648 99.9141 410.195 100.305 409.852 100.836C409.523 101.352 409.289 102 409.148 102.781C409.023 103.547 408.969 104.445 408.984 105.477V107.398C408.953 108.586 409.07 109.633 409.336 110.539C409.602 111.43 410.062 112.125 410.719 112.625C411.375 113.125 412.266 113.375 413.391 113.375C414.141 113.375 414.766 113.203 415.266 112.859C415.766 112.5 416.164 112.008 416.461 111.383C416.758 110.742 416.969 110.008 417.094 109.18C417.219 108.352 417.281 107.461 417.281 106.508ZM442.055 93.6406V99.125H426.773V93.6406H442.055ZM429.984 87.3359H437.883V110.727C437.883 111.398 437.961 111.922 438.117 112.297C438.273 112.656 438.539 112.914 438.914 113.07C439.305 113.211 439.82 113.281 440.461 113.281C440.914 113.281 441.289 113.273 441.586 113.258C441.883 113.227 442.164 113.188 442.43 113.141V118.789C441.758 119.008 441.055 119.172 440.32 119.281C439.586 119.406 438.805 119.469 437.977 119.469C436.289 119.469 434.844 119.203 433.641 118.672C432.453 118.141 431.547 117.305 430.922 116.164C430.297 115.023 429.984 113.539 429.984 111.711V87.3359ZM453.539 93.6406V119H445.617V93.6406H453.539ZM445.148 87.1016C445.148 85.9766 445.555 85.0547 446.367 84.3359C447.18 83.6172 448.234 83.2578 449.531 83.2578C450.828 83.2578 451.883 83.6172 452.695 84.3359C453.508 85.0547 453.914 85.9766 453.914 87.1016C453.914 88.2266 453.508 89.1484 452.695 89.8672C451.883 90.5859 450.828 90.9453 449.531 90.9453C448.234 90.9453 447.18 90.5859 446.367 89.8672C445.555 89.1484 445.148 88.2266 445.148 87.1016ZM457.43 106.578V106.086C457.43 104.227 457.695 102.516 458.227 100.953C458.758 99.375 459.539 98.0078 460.57 96.8516C461.602 95.6953 462.875 94.7969 464.391 94.1562C465.906 93.5 467.656 93.1719 469.641 93.1719C471.641 93.1719 473.398 93.5 474.914 94.1562C476.445 94.7969 477.727 95.6953 478.758 96.8516C479.789 98.0078 480.57 99.375 481.102 100.953C481.633 102.516 481.898 104.227 481.898 106.086V106.578C481.898 108.422 481.633 110.133 481.102 111.711C480.57 113.273 479.789 114.641 478.758 115.812C477.727 116.969 476.453 117.867 474.938 118.508C473.422 119.148 471.672 119.469 469.688 119.469C467.703 119.469 465.945 119.148 464.414 118.508C462.883 117.867 461.602 116.969 460.57 115.812C459.539 114.641 458.758 113.273 458.227 111.711C457.695 110.133 457.43 108.422 457.43 106.578ZM465.328 106.086V106.578C465.328 107.531 465.398 108.422 465.539 109.25C465.68 110.078 465.914 110.805 466.242 111.43C466.57 112.039 467.016 112.516 467.578 112.859C468.141 113.203 468.844 113.375 469.688 113.375C470.516 113.375 471.203 113.203 471.75 112.859C472.312 112.516 472.758 112.039 473.086 111.43C473.414 110.805 473.648 110.078 473.789 109.25C473.93 108.422 474 107.531 474 106.578V106.086C474 105.164 473.93 104.297 473.789 103.484C473.648 102.656 473.414 101.93 473.086 101.305C472.758 100.664 472.312 100.164 471.75 99.8047C471.188 99.4453 470.484 99.2656 469.641 99.2656C468.812 99.2656 468.117 99.4453 467.555 99.8047C467.008 100.164 466.57 100.664 466.242 101.305C465.914 101.93 465.68 102.656 465.539 103.484C465.398 104.297 465.328 105.164 465.328 106.086ZM493.172 99.0547V119H485.273V93.6406H492.68L493.172 99.0547ZM492.234 105.453L490.383 105.5C490.383 103.562 490.617 101.836 491.086 100.32C491.555 98.7891 492.219 97.4922 493.078 96.4297C493.938 95.3672 494.961 94.5625 496.148 94.0156C497.352 93.4531 498.688 93.1719 500.156 93.1719C501.328 93.1719 502.398 93.3438 503.367 93.6875C504.352 94.0312 505.195 94.5859 505.898 95.3516C506.617 96.1172 507.164 97.1328 507.539 98.3984C507.93 99.6484 508.125 101.195 508.125 103.039V119H500.18V103.016C500.18 102 500.039 101.227 499.758 100.695C499.477 100.148 499.07 99.7734 498.539 99.5703C498.008 99.3672 497.359 99.2656 496.594 99.2656C495.781 99.2656 495.094 99.4219 494.531 99.7344C493.969 100.047 493.516 100.484 493.172 101.047C492.844 101.594 492.602 102.242 492.445 102.992C492.305 103.742 492.234 104.562 492.234 105.453Z" fill="black"/>
<path d="M1134 0H1348C1356.28 0 1363 6.71573 1363 15V148C1363 156.284 1356.28 163 1348 163H1134V0Z" fill="#05C3C5"/>
<path d="M1234.26 103.786H1262.74V109.357H1234.26V103.786ZM1239.96 114.929H1257.04V120.5H1239.96V114.929ZM1248.5 42.5C1240.95 42.5 1233.71 45.4349 1228.37 50.6592C1223.03 55.8834 1220.03 62.969 1220.03 70.3571C1219.84 74.4057 1220.63 78.4412 1222.34 82.1315C1224.05 85.8219 1226.64 89.0616 1229.88 91.5843C1232.73 94.175 1234.26 95.6514 1234.26 98.2143H1239.96C1239.96 93.0886 1236.8 90.2193 1233.72 87.4614C1231.06 85.4676 1228.94 82.8658 1227.55 79.8838C1226.15 76.9019 1225.53 73.6308 1225.72 70.3571C1225.72 64.4466 1228.12 58.7781 1232.39 54.5988C1236.67 50.4194 1242.46 48.0714 1248.5 48.0714C1254.54 48.0714 1260.33 50.4194 1264.61 54.5988C1268.88 58.7781 1271.28 64.4466 1271.28 70.3571C1271.47 73.6333 1270.84 76.9059 1269.44 79.888C1268.04 82.8701 1265.92 85.4706 1263.25 87.4614C1260.2 90.2471 1257.04 93.0329 1257.04 98.2143H1262.74C1262.74 95.6514 1264.25 94.175 1267.12 91.5564C1270.36 89.0381 1272.94 85.8031 1274.66 82.1176C1276.37 78.4321 1277.16 74.4014 1276.97 70.3571C1276.97 66.6989 1276.24 63.0765 1274.81 59.6967C1273.37 56.3169 1271.28 53.2459 1268.63 50.6592C1265.99 48.0724 1262.85 46.0205 1259.4 44.6205C1255.94 43.2205 1252.24 42.5 1248.5 42.5Z" fill="white"/>
</svg>
