<svg width="1363" height="163" viewBox="0 0 1363 163" fill="none" xmlns="http://www.w3.org/2000/svg">
<path d="M0 15C0 6.71573 6.71573 0 15 0H37V163H15C6.71573 163 0 156.284 0 148V15Z" fill="#424242"/>
<rect width="1097" height="163" transform="translate(37)" fill="#F0F0F0"/>
<path d="M104.414 55.3398H107.918C107.848 56.4883 107.531 57.5078 106.969 58.3984C106.414 59.2891 105.637 59.9844 104.637 60.4844C103.645 60.9844 102.449 61.2344 101.051 61.2344C99.957 61.2344 98.9766 61.0469 98.1094 60.6719C97.2422 60.2891 96.5 59.7422 95.8828 59.0312C95.2734 58.3203 94.8086 57.4609 94.4883 56.4531C94.168 55.4453 94.0078 54.3164 94.0078 53.0664V51.8828C94.0078 50.6328 94.1719 49.5039 94.5 48.4961C94.8359 47.4805 95.3125 46.6172 95.9297 45.9062C96.5547 45.1953 97.3008 44.6484 98.168 44.2656C99.0352 43.8828 100.004 43.6914 101.074 43.6914C102.496 43.6914 103.695 43.9492 104.672 44.4648C105.656 44.9805 106.418 45.6914 106.957 46.5977C107.504 47.5039 107.832 48.5352 107.941 49.6914H104.426C104.387 49.0039 104.25 48.4219 104.016 47.9453C103.781 47.4609 103.426 47.0977 102.949 46.8555C102.48 46.6055 101.855 46.4805 101.074 46.4805C100.488 46.4805 99.9766 46.5898 99.5391 46.8086C99.1016 47.0273 98.7344 47.3594 98.4375 47.8047C98.1406 48.25 97.918 48.8125 97.7695 49.4922C97.6289 50.1641 97.5586 50.9531 97.5586 51.8594V53.0664C97.5586 53.9492 97.625 54.7266 97.7578 55.3984C97.8906 56.0625 98.0938 56.625 98.3672 57.0859C98.6484 57.5391 99.0078 57.8828 99.4453 58.1172C99.8906 58.3438 100.426 58.457 101.051 58.457C101.785 58.457 102.391 58.3398 102.867 58.1055C103.344 57.8711 103.707 57.5234 103.957 57.0625C104.215 56.6016 104.367 56.0273 104.414 55.3398ZM109.477 54.7891V54.543C109.477 53.6133 109.609 52.7578 109.875 51.9766C110.141 51.1875 110.527 50.5039 111.035 49.9258C111.543 49.3477 112.168 48.8984 112.91 48.5781C113.652 48.25 114.504 48.0859 115.465 48.0859C116.426 48.0859 117.281 48.25 118.031 48.5781C118.781 48.8984 119.41 49.3477 119.918 49.9258C120.434 50.5039 120.824 51.1875 121.09 51.9766C121.355 52.7578 121.488 53.6133 121.488 54.543V54.7891C121.488 55.7109 121.355 56.5664 121.09 57.3555C120.824 58.1367 120.434 58.8203 119.918 59.4062C119.41 59.9844 118.785 60.4336 118.043 60.7539C117.301 61.0742 116.449 61.2344 115.488 61.2344C114.527 61.2344 113.672 61.0742 112.922 60.7539C112.18 60.4336 111.551 59.9844 111.035 59.4062C110.527 58.8203 110.141 58.1367 109.875 57.3555C109.609 56.5664 109.477 55.7109 109.477 54.7891ZM112.852 54.543V54.7891C112.852 55.3203 112.898 55.8164 112.992 56.2773C113.086 56.7383 113.234 57.1445 113.438 57.4961C113.648 57.8398 113.922 58.1094 114.258 58.3047C114.594 58.5 115.004 58.5977 115.488 58.5977C115.957 58.5977 116.359 58.5 116.695 58.3047C117.031 58.1094 117.301 57.8398 117.504 57.4961C117.707 57.1445 117.855 56.7383 117.949 56.2773C118.051 55.8164 118.102 55.3203 118.102 54.7891V54.543C118.102 54.0273 118.051 53.543 117.949 53.0898C117.855 52.6289 117.703 52.2227 117.492 51.8711C117.289 51.5117 117.02 51.2305 116.684 51.0273C116.348 50.8242 115.941 50.7227 115.465 50.7227C114.988 50.7227 114.582 50.8242 114.246 51.0273C113.918 51.2305 113.648 51.5117 113.438 51.8711C113.234 52.2227 113.086 52.6289 112.992 53.0898C112.898 53.543 112.852 54.0273 112.852 54.543ZM126.867 51.0273V61H123.492V48.3203H126.656L126.867 51.0273ZM126.375 54.2148H125.461C125.461 53.2773 125.582 52.4336 125.824 51.6836C126.066 50.9258 126.406 50.2812 126.844 49.75C127.281 49.2109 127.801 48.8008 128.402 48.5195C129.012 48.2305 129.691 48.0859 130.441 48.0859C131.035 48.0859 131.578 48.1719 132.07 48.3438C132.562 48.5156 132.984 48.7891 133.336 49.1641C133.695 49.5391 133.969 50.0352 134.156 50.6523C134.352 51.2695 134.449 52.0234 134.449 52.9141V61H131.051V52.9023C131.051 52.3398 130.973 51.9023 130.816 51.5898C130.66 51.2773 130.43 51.0586 130.125 50.9336C129.828 50.8008 129.461 50.7344 129.023 50.7344C128.57 50.7344 128.176 50.8242 127.84 51.0039C127.512 51.1836 127.238 51.4336 127.02 51.7539C126.809 52.0664 126.648 52.4336 126.539 52.8555C126.43 53.2773 126.375 53.7305 126.375 54.2148ZM143.227 48.3203V50.7109H135.844V48.3203H143.227ZM137.672 45.1914H141.047V57.1797C141.047 57.5469 141.094 57.8281 141.188 58.0234C141.289 58.2188 141.438 58.3555 141.633 58.4336C141.828 58.5039 142.074 58.5391 142.371 58.5391C142.582 58.5391 142.77 58.5312 142.934 58.5156C143.105 58.4922 143.25 58.4688 143.367 58.4453L143.379 60.9297C143.09 61.0234 142.777 61.0977 142.441 61.1523C142.105 61.207 141.734 61.2344 141.328 61.2344C140.586 61.2344 139.938 61.1133 139.383 60.8711C138.836 60.6211 138.414 60.2227 138.117 59.6758C137.82 59.1289 137.672 58.4102 137.672 57.5195V45.1914ZM151.992 58.1406V52.4922C151.992 52.0859 151.926 51.7383 151.793 51.4492C151.66 51.1523 151.453 50.9219 151.172 50.7578C150.898 50.5938 150.543 50.5117 150.105 50.5117C149.73 50.5117 149.406 50.5781 149.133 50.7109C148.859 50.8359 148.648 51.0195 148.5 51.2617C148.352 51.4961 148.277 51.7734 148.277 52.0938H144.902C144.902 51.5547 145.027 51.043 145.277 50.5586C145.527 50.0742 145.891 49.6484 146.367 49.2812C146.844 48.9062 147.41 48.6133 148.066 48.4023C148.73 48.1914 149.473 48.0859 150.293 48.0859C151.277 48.0859 152.152 48.25 152.918 48.5781C153.684 48.9062 154.285 49.3984 154.723 50.0547C155.168 50.7109 155.391 51.5312 155.391 52.5156V57.9414C155.391 58.6367 155.434 59.207 155.52 59.6523C155.605 60.0898 155.73 60.4727 155.895 60.8008V61H152.484C152.32 60.6562 152.195 60.2266 152.109 59.7109C152.031 59.1875 151.992 58.6641 151.992 58.1406ZM152.438 53.2773L152.461 55.1875H150.574C150.129 55.1875 149.742 55.2383 149.414 55.3398C149.086 55.4414 148.816 55.5859 148.605 55.7734C148.395 55.9531 148.238 56.1641 148.137 56.4062C148.043 56.6484 147.996 56.9141 147.996 57.2031C147.996 57.4922 148.062 57.7539 148.195 57.9883C148.328 58.2148 148.52 58.3945 148.77 58.5273C149.02 58.6523 149.312 58.7148 149.648 58.7148C150.156 58.7148 150.598 58.6133 150.973 58.4102C151.348 58.207 151.637 57.957 151.84 57.6602C152.051 57.3633 152.16 57.082 152.168 56.8164L153.059 58.2461C152.934 58.5664 152.762 58.8984 152.543 59.2422C152.332 59.5859 152.062 59.9102 151.734 60.2148C151.406 60.5117 151.012 60.7578 150.551 60.9531C150.09 61.1406 149.543 61.2344 148.91 61.2344C148.105 61.2344 147.375 61.0742 146.719 60.7539C146.07 60.4258 145.555 59.9766 145.172 59.4062C144.797 58.8281 144.609 58.1719 144.609 57.4375C144.609 56.7734 144.734 56.1836 144.984 55.668C145.234 55.1523 145.602 54.7188 146.086 54.3672C146.578 54.0078 147.191 53.7383 147.926 53.5586C148.66 53.3711 149.512 53.2773 150.48 53.2773H152.438ZM163.23 58.5977C163.645 58.5977 164.012 58.5195 164.332 58.3633C164.652 58.1992 164.902 57.9727 165.082 57.6836C165.27 57.3867 165.367 57.0391 165.375 56.6406H168.551C168.543 57.5312 168.305 58.3242 167.836 59.0195C167.367 59.707 166.738 60.25 165.949 60.6484C165.16 61.0391 164.277 61.2344 163.301 61.2344C162.316 61.2344 161.457 61.0703 160.723 60.7422C159.996 60.4141 159.391 59.9609 158.906 59.3828C158.422 58.7969 158.059 58.1172 157.816 57.3438C157.574 56.5625 157.453 55.7266 157.453 54.8359V54.4961C157.453 53.5977 157.574 52.7617 157.816 51.9883C158.059 51.207 158.422 50.5273 158.906 49.9492C159.391 49.3633 159.996 48.9062 160.723 48.5781C161.449 48.25 162.301 48.0859 163.277 48.0859C164.316 48.0859 165.227 48.2852 166.008 48.6836C166.797 49.082 167.414 49.6523 167.859 50.3945C168.312 51.1289 168.543 52 168.551 53.0078H165.375C165.367 52.5859 165.277 52.2031 165.105 51.8594C164.941 51.5156 164.699 51.2422 164.379 51.0391C164.066 50.8281 163.68 50.7227 163.219 50.7227C162.727 50.7227 162.324 50.8281 162.012 51.0391C161.699 51.2422 161.457 51.5234 161.285 51.8828C161.113 52.2344 160.992 52.6367 160.922 53.0898C160.859 53.5352 160.828 54.0039 160.828 54.4961V54.8359C160.828 55.3281 160.859 55.8008 160.922 56.2539C160.984 56.707 161.102 57.1094 161.273 57.4609C161.453 57.8125 161.699 58.0898 162.012 58.293C162.324 58.4961 162.73 58.5977 163.23 58.5977ZM176.719 48.3203V50.7109H169.336V48.3203H176.719ZM171.164 45.1914H174.539V57.1797C174.539 57.5469 174.586 57.8281 174.68 58.0234C174.781 58.2188 174.93 58.3555 175.125 58.4336C175.32 58.5039 175.566 58.5391 175.863 58.5391C176.074 58.5391 176.262 58.5312 176.426 58.5156C176.598 58.4922 176.742 58.4688 176.859 58.4453L176.871 60.9297C176.582 61.0234 176.27 61.0977 175.934 61.1523C175.598 61.207 175.227 61.2344 174.82 61.2344C174.078 61.2344 173.43 61.1133 172.875 60.8711C172.328 60.6211 171.906 60.2227 171.609 59.6758C171.312 59.1289 171.164 58.4102 171.164 57.5195V45.1914ZM185.496 57.4961C185.496 57.2539 185.426 57.0352 185.285 56.8398C185.145 56.6445 184.883 56.4648 184.5 56.3008C184.125 56.1289 183.582 55.9727 182.871 55.832C182.23 55.6914 181.633 55.5156 181.078 55.3047C180.531 55.0859 180.055 54.8242 179.648 54.5195C179.25 54.2148 178.938 53.8555 178.711 53.4414C178.484 53.0195 178.371 52.5391 178.371 52C178.371 51.4688 178.484 50.9688 178.711 50.5C178.945 50.0312 179.277 49.6172 179.707 49.2578C180.145 48.8906 180.676 48.6055 181.301 48.4023C181.934 48.1914 182.645 48.0859 183.434 48.0859C184.535 48.0859 185.48 48.2617 186.27 48.6133C187.066 48.9648 187.676 49.4492 188.098 50.0664C188.527 50.6758 188.742 51.3711 188.742 52.1523H185.367C185.367 51.8242 185.297 51.5312 185.156 51.2734C185.023 51.0078 184.812 50.8008 184.523 50.6523C184.242 50.4961 183.875 50.418 183.422 50.418C183.047 50.418 182.723 50.4844 182.449 50.6172C182.176 50.7422 181.965 50.9141 181.816 51.1328C181.676 51.3438 181.605 51.5781 181.605 51.8359C181.605 52.0312 181.645 52.207 181.723 52.3633C181.809 52.5117 181.945 52.6484 182.133 52.7734C182.32 52.8984 182.562 53.0156 182.859 53.125C183.164 53.2266 183.539 53.3203 183.984 53.4062C184.898 53.5938 185.715 53.8398 186.434 54.1445C187.152 54.4414 187.723 54.8477 188.145 55.3633C188.566 55.8711 188.777 56.5391 188.777 57.3672C188.777 57.9297 188.652 58.4453 188.402 58.9141C188.152 59.3828 187.793 59.793 187.324 60.1445C186.855 60.4883 186.293 60.7578 185.637 60.9531C184.988 61.1406 184.258 61.2344 183.445 61.2344C182.266 61.2344 181.266 61.0234 180.445 60.6016C179.633 60.1797 179.016 59.6445 178.594 58.9961C178.18 58.3398 177.973 57.668 177.973 56.9805H181.172C181.188 57.4414 181.305 57.8125 181.523 58.0938C181.75 58.375 182.035 58.5781 182.379 58.7031C182.73 58.8281 183.109 58.8906 183.516 58.8906C183.953 58.8906 184.316 58.832 184.605 58.7148C184.895 58.5898 185.113 58.4258 185.262 58.2227C185.418 58.0117 185.496 57.7695 185.496 57.4961ZM197.859 53.5117H193.477L193.453 51.0977H197.133C197.781 51.0977 198.312 51.0156 198.727 50.8516C199.141 50.6797 199.449 50.4336 199.652 50.1133C199.863 49.7852 199.969 49.3867 199.969 48.918C199.969 48.3867 199.867 47.957 199.664 47.6289C199.469 47.3008 199.16 47.0625 198.738 46.9141C198.324 46.7656 197.789 46.6914 197.133 46.6914H194.695V61H191.18V43.9375H197.133C198.125 43.9375 199.012 44.0312 199.793 44.2188C200.582 44.4062 201.25 44.6914 201.797 45.0742C202.344 45.457 202.762 45.9414 203.051 46.5273C203.34 47.1055 203.484 47.793 203.484 48.5898C203.484 49.293 203.324 49.9414 203.004 50.5352C202.691 51.1289 202.195 51.6133 201.516 51.9883C200.844 52.3633 199.965 52.5703 198.879 52.6094L197.859 53.5117ZM197.707 61H192.516L193.887 58.2578H197.707C198.324 58.2578 198.828 58.1602 199.219 57.9648C199.609 57.7617 199.898 57.4883 200.086 57.1445C200.273 56.8008 200.367 56.4062 200.367 55.9609C200.367 55.4609 200.281 55.0273 200.109 54.6602C199.945 54.293 199.68 54.0117 199.312 53.8164C198.945 53.6133 198.461 53.5117 197.859 53.5117H194.473L194.496 51.0977H198.715L199.523 52.0469C200.562 52.0312 201.398 52.2148 202.031 52.5977C202.672 52.9727 203.137 53.4609 203.426 54.0625C203.723 54.6641 203.871 55.3086 203.871 55.9961C203.871 57.0898 203.633 58.0117 203.156 58.7617C202.68 59.5039 201.98 60.0625 201.059 60.4375C200.145 60.8125 199.027 61 197.707 61ZM205.758 54.7891V54.543C205.758 53.6133 205.891 52.7578 206.156 51.9766C206.422 51.1875 206.809 50.5039 207.316 49.9258C207.824 49.3477 208.449 48.8984 209.191 48.5781C209.934 48.25 210.785 48.0859 211.746 48.0859C212.707 48.0859 213.562 48.25 214.312 48.5781C215.062 48.8984 215.691 49.3477 216.199 49.9258C216.715 50.5039 217.105 51.1875 217.371 51.9766C217.637 52.7578 217.77 53.6133 217.77 54.543V54.7891C217.77 55.7109 217.637 56.5664 217.371 57.3555C217.105 58.1367 216.715 58.8203 216.199 59.4062C215.691 59.9844 215.066 60.4336 214.324 60.7539C213.582 61.0742 212.73 61.2344 211.77 61.2344C210.809 61.2344 209.953 61.0742 209.203 60.7539C208.461 60.4336 207.832 59.9844 207.316 59.4062C206.809 58.8203 206.422 58.1367 206.156 57.3555C205.891 56.5664 205.758 55.7109 205.758 54.7891ZM209.133 54.543V54.7891C209.133 55.3203 209.18 55.8164 209.273 56.2773C209.367 56.7383 209.516 57.1445 209.719 57.4961C209.93 57.8398 210.203 58.1094 210.539 58.3047C210.875 58.5 211.285 58.5977 211.77 58.5977C212.238 58.5977 212.641 58.5 212.977 58.3047C213.312 58.1094 213.582 57.8398 213.785 57.4961C213.988 57.1445 214.137 56.7383 214.23 56.2773C214.332 55.8164 214.383 55.3203 214.383 54.7891V54.543C214.383 54.0273 214.332 53.543 214.23 53.0898C214.137 52.6289 213.984 52.2227 213.773 51.8711C213.57 51.5117 213.301 51.2305 212.965 51.0273C212.629 50.8242 212.223 50.7227 211.746 50.7227C211.27 50.7227 210.863 50.8242 210.527 51.0273C210.199 51.2305 209.93 51.5117 209.719 51.8711C209.516 52.2227 209.367 52.6289 209.273 53.0898C209.18 53.543 209.133 54.0273 209.133 54.543ZM219.305 54.7891V54.543C219.305 53.6133 219.438 52.7578 219.703 51.9766C219.969 51.1875 220.355 50.5039 220.863 49.9258C221.371 49.3477 221.996 48.8984 222.738 48.5781C223.48 48.25 224.332 48.0859 225.293 48.0859C226.254 48.0859 227.109 48.25 227.859 48.5781C228.609 48.8984 229.238 49.3477 229.746 49.9258C230.262 50.5039 230.652 51.1875 230.918 51.9766C231.184 52.7578 231.316 53.6133 231.316 54.543V54.7891C231.316 55.7109 231.184 56.5664 230.918 57.3555C230.652 58.1367 230.262 58.8203 229.746 59.4062C229.238 59.9844 228.613 60.4336 227.871 60.7539C227.129 61.0742 226.277 61.2344 225.316 61.2344C224.355 61.2344 223.5 61.0742 222.75 60.7539C222.008 60.4336 221.379 59.9844 220.863 59.4062C220.355 58.8203 219.969 58.1367 219.703 57.3555C219.438 56.5664 219.305 55.7109 219.305 54.7891ZM222.68 54.543V54.7891C222.68 55.3203 222.727 55.8164 222.82 56.2773C222.914 56.7383 223.062 57.1445 223.266 57.4961C223.477 57.8398 223.75 58.1094 224.086 58.3047C224.422 58.5 224.832 58.5977 225.316 58.5977C225.785 58.5977 226.188 58.5 226.523 58.3047C226.859 58.1094 227.129 57.8398 227.332 57.4961C227.535 57.1445 227.684 56.7383 227.777 56.2773C227.879 55.8164 227.93 55.3203 227.93 54.7891V54.543C227.93 54.0273 227.879 53.543 227.777 53.0898C227.684 52.6289 227.531 52.2227 227.32 51.8711C227.117 51.5117 226.848 51.2305 226.512 51.0273C226.176 50.8242 225.77 50.7227 225.293 50.7227C224.816 50.7227 224.41 50.8242 224.074 51.0273C223.746 51.2305 223.477 51.5117 223.266 51.8711C223.062 52.2227 222.914 52.6289 222.82 53.0898C222.727 53.543 222.68 54.0273 222.68 54.543ZM236.766 42.9883V61H233.391V42.9883H236.766ZM244.758 48.3203L239.25 54.6016L236.297 57.5898L235.066 55.1523L237.41 52.1758L240.703 48.3203H244.758ZM241.254 61L237.504 55.1406L239.836 53.1016L245.145 61H241.254Z" fill="#888888"/>
<path d="M113.18 109.93C113.18 109.398 113.102 108.922 112.945 108.5C112.789 108.062 112.5 107.656 112.078 107.281C111.656 106.906 111.047 106.531 110.25 106.156C109.469 105.766 108.438 105.359 107.156 104.938C105.656 104.438 104.211 103.875 102.82 103.25C101.43 102.609 100.188 101.867 99.0938 101.023C98 100.164 97.1328 99.1641 96.4922 98.0234C95.8516 96.8672 95.5312 95.5234 95.5312 93.9922C95.5312 92.5234 95.8594 91.2031 96.5156 90.0312C97.1719 88.8438 98.0859 87.8359 99.2578 87.0078C100.445 86.1641 101.836 85.5234 103.43 85.0859C105.023 84.6328 106.766 84.4062 108.656 84.4062C111.156 84.4062 113.359 84.8438 115.266 85.7188C117.188 86.5781 118.688 87.8047 119.766 89.3984C120.859 90.9766 121.406 92.8438 121.406 95H113.227C113.227 94.1406 113.047 93.3828 112.688 92.7266C112.344 92.0703 111.82 91.5547 111.117 91.1797C110.414 90.8047 109.531 90.6172 108.469 90.6172C107.438 90.6172 106.57 90.7734 105.867 91.0859C105.164 91.3984 104.633 91.8203 104.273 92.3516C103.914 92.8672 103.734 93.4375 103.734 94.0625C103.734 94.5781 103.875 95.0469 104.156 95.4688C104.453 95.875 104.867 96.2578 105.398 96.6172C105.945 96.9766 106.602 97.3203 107.367 97.6484C108.148 97.9766 109.023 98.2969 109.992 98.6094C111.805 99.1875 113.414 99.8359 114.82 100.555C116.242 101.258 117.438 102.062 118.406 102.969C119.391 103.859 120.133 104.875 120.633 106.016C121.148 107.156 121.406 108.445 121.406 109.883C121.406 111.414 121.109 112.773 120.516 113.961C119.922 115.148 119.07 116.156 117.961 116.984C116.852 117.797 115.523 118.414 113.977 118.836C112.43 119.258 110.703 119.469 108.797 119.469C107.047 119.469 105.32 119.25 103.617 118.812C101.93 118.359 100.398 117.672 99.0234 116.75C97.6484 115.812 96.5469 114.617 95.7188 113.164C94.9062 111.695 94.5 109.953 94.5 107.938H102.75C102.75 108.938 102.883 109.781 103.148 110.469C103.414 111.156 103.805 111.711 104.32 112.133C104.836 112.539 105.469 112.836 106.219 113.023C106.969 113.195 107.828 113.281 108.797 113.281C109.844 113.281 110.688 113.133 111.328 112.836C111.969 112.523 112.438 112.117 112.734 111.617C113.031 111.102 113.18 110.539 113.18 109.93ZM133.031 99.0547V119H125.133V93.6406H132.539L133.031 99.0547ZM132.094 105.453L130.242 105.5C130.242 103.562 130.477 101.836 130.945 100.32C131.414 98.7891 132.078 97.4922 132.938 96.4297C133.797 95.3672 134.82 94.5625 136.008 94.0156C137.211 93.4531 138.547 93.1719 140.016 93.1719C141.188 93.1719 142.258 93.3438 143.227 93.6875C144.211 94.0312 145.055 94.5859 145.758 95.3516C146.477 96.1172 147.023 97.1328 147.398 98.3984C147.789 99.6484 147.984 101.195 147.984 103.039V119H140.039V103.016C140.039 102 139.898 101.227 139.617 100.695C139.336 100.148 138.93 99.7734 138.398 99.5703C137.867 99.3672 137.219 99.2656 136.453 99.2656C135.641 99.2656 134.953 99.4219 134.391 99.7344C133.828 100.047 133.375 100.484 133.031 101.047C132.703 101.594 132.461 102.242 132.305 102.992C132.164 103.742 132.094 104.562 132.094 105.453ZM165.539 112.625V102.172C165.539 101.453 165.438 100.836 165.234 100.32C165.031 99.8047 164.711 99.4062 164.273 99.125C163.836 98.8281 163.25 98.6797 162.516 98.6797C161.922 98.6797 161.414 98.7812 160.992 98.9844C160.57 99.1875 160.25 99.4922 160.031 99.8984C159.812 100.305 159.703 100.82 159.703 101.445H151.805C151.805 100.273 152.062 99.1875 152.578 98.1875C153.109 97.1719 153.859 96.2891 154.828 95.5391C155.812 94.7891 156.984 94.2109 158.344 93.8047C159.719 93.3828 161.25 93.1719 162.938 93.1719C164.953 93.1719 166.75 93.5078 168.328 94.1797C169.922 94.8516 171.18 95.8594 172.102 97.2031C173.023 98.5312 173.484 100.203 173.484 102.219V112.602C173.484 114.258 173.578 115.516 173.766 116.375C173.953 117.219 174.219 117.961 174.562 118.602V119H166.641C166.266 118.219 165.984 117.266 165.797 116.141C165.625 115 165.539 113.828 165.539 112.625ZM166.5 103.508L166.547 107.727H163.055C162.32 107.727 161.695 107.828 161.18 108.031C160.68 108.234 160.273 108.516 159.961 108.875C159.664 109.219 159.445 109.609 159.305 110.047C159.18 110.484 159.117 110.945 159.117 111.43C159.117 111.898 159.227 112.32 159.445 112.695C159.68 113.055 159.992 113.336 160.383 113.539C160.773 113.742 161.211 113.844 161.695 113.844C162.57 113.844 163.312 113.68 163.922 113.352C164.547 113.008 165.023 112.594 165.352 112.109C165.68 111.625 165.844 111.172 165.844 110.75L167.578 113.984C167.266 114.609 166.906 115.242 166.5 115.883C166.109 116.523 165.617 117.117 165.023 117.664C164.445 118.195 163.734 118.633 162.891 118.977C162.047 119.305 161.023 119.469 159.82 119.469C158.258 119.469 156.82 119.148 155.508 118.508C154.211 117.867 153.172 116.977 152.391 115.836C151.609 114.68 151.219 113.352 151.219 111.852C151.219 110.539 151.453 109.367 151.922 108.336C152.406 107.305 153.133 106.43 154.102 105.711C155.07 104.992 156.305 104.445 157.805 104.07C159.305 103.695 161.07 103.508 163.102 103.508H166.5ZM185.836 98.5156V128.75H177.938V93.6406H185.297L185.836 98.5156ZM201.398 106.016V106.508C201.398 108.352 201.188 110.062 200.766 111.641C200.344 113.219 199.719 114.594 198.891 115.766C198.062 116.938 197.031 117.852 195.797 118.508C194.578 119.148 193.164 119.469 191.555 119.469C190.039 119.469 188.734 119.133 187.641 118.461C186.547 117.789 185.633 116.859 184.898 115.672C184.164 114.484 183.57 113.125 183.117 111.594C182.664 110.062 182.305 108.445 182.039 106.742V106.109C182.305 104.281 182.664 102.586 183.117 101.023C183.57 99.4453 184.164 98.0703 184.898 96.8984C185.633 95.7266 186.539 94.8125 187.617 94.1562C188.711 93.5 190.016 93.1719 191.531 93.1719C193.141 93.1719 194.555 93.4766 195.773 94.0859C197.008 94.6953 198.039 95.5703 198.867 96.7109C199.711 97.8359 200.344 99.1875 200.766 100.766C201.188 102.344 201.398 104.094 201.398 106.016ZM193.5 106.508V106.016C193.5 105.031 193.43 104.133 193.289 103.32C193.148 102.492 192.922 101.773 192.609 101.164C192.312 100.555 191.914 100.086 191.414 99.7578C190.914 99.4297 190.297 99.2656 189.562 99.2656C188.719 99.2656 188.008 99.3984 187.43 99.6641C186.867 99.9141 186.414 100.305 186.07 100.836C185.742 101.352 185.508 102 185.367 102.781C185.242 103.547 185.188 104.445 185.203 105.477V107.398C185.172 108.586 185.289 109.633 185.555 110.539C185.82 111.43 186.281 112.125 186.938 112.625C187.594 113.125 188.484 113.375 189.609 113.375C190.359 113.375 190.984 113.203 191.484 112.859C191.984 112.5 192.383 112.008 192.68 111.383C192.977 110.742 193.188 110.008 193.312 109.18C193.438 108.352 193.5 107.461 193.5 106.508ZM218.203 111.875C218.203 111.438 218.055 111.062 217.758 110.75C217.477 110.422 216.977 110.125 216.258 109.859C215.539 109.578 214.531 109.297 213.234 109.016C212 108.75 210.836 108.398 209.742 107.961C208.664 107.523 207.719 106.992 206.906 106.367C206.094 105.742 205.453 105 204.984 104.141C204.531 103.281 204.305 102.297 204.305 101.188C204.305 100.109 204.531 99.0938 204.984 98.1406C205.453 97.1719 206.133 96.3203 207.023 95.5859C207.93 94.8359 209.031 94.25 210.328 93.8281C211.625 93.3906 213.102 93.1719 214.758 93.1719C217.039 93.1719 219.008 93.5234 220.664 94.2266C222.32 94.9141 223.594 95.8828 224.484 97.1328C225.391 98.3672 225.844 99.7969 225.844 101.422H217.945C217.945 100.781 217.836 100.234 217.617 99.7812C217.414 99.3281 217.078 98.9844 216.609 98.75C216.141 98.5 215.516 98.375 214.734 98.375C214.188 98.375 213.688 98.4766 213.234 98.6797C212.797 98.8828 212.445 99.1641 212.18 99.5234C211.914 99.8828 211.781 100.305 211.781 100.789C211.781 101.133 211.859 101.445 212.016 101.727C212.188 101.992 212.445 102.242 212.789 102.477C213.133 102.695 213.57 102.898 214.102 103.086C214.633 103.258 215.273 103.414 216.023 103.555C217.727 103.867 219.32 104.312 220.805 104.891C222.289 105.469 223.492 106.289 224.414 107.352C225.352 108.414 225.82 109.844 225.82 111.641C225.82 112.766 225.562 113.805 225.047 114.758C224.531 115.695 223.789 116.523 222.82 117.242C221.852 117.945 220.688 118.492 219.328 118.883C217.969 119.273 216.438 119.469 214.734 119.469C212.312 119.469 210.266 119.039 208.594 118.18C206.922 117.305 205.656 116.211 204.797 114.898C203.953 113.57 203.531 112.227 203.531 110.867H210.891C210.922 111.648 211.109 112.289 211.453 112.789C211.812 113.289 212.289 113.656 212.883 113.891C213.477 114.125 214.164 114.242 214.945 114.242C215.664 114.242 216.258 114.141 216.727 113.938C217.211 113.734 217.578 113.461 217.828 113.117C218.078 112.758 218.203 112.344 218.203 111.875ZM237.258 83V119H229.359V83H237.258ZM236.32 105.453L234.469 105.5C234.469 103.719 234.688 102.078 235.125 100.578C235.562 99.0781 236.188 97.7734 237 96.6641C237.812 95.5547 238.789 94.6953 239.93 94.0859C241.07 93.4766 242.336 93.1719 243.727 93.1719C244.977 93.1719 246.117 93.3516 247.148 93.7109C248.195 94.0703 249.094 94.6484 249.844 95.4453C250.609 96.2422 251.195 97.2812 251.602 98.5625C252.023 99.8438 252.234 101.406 252.234 103.25V119H244.289V103.203C244.289 102.172 244.141 101.375 243.844 100.812C243.562 100.234 243.156 99.8359 242.625 99.6172C242.094 99.3828 241.445 99.2656 240.68 99.2656C239.758 99.2656 239.008 99.4219 238.43 99.7344C237.852 100.047 237.406 100.484 237.094 101.047C236.797 101.594 236.594 102.242 236.484 102.992C236.375 103.742 236.32 104.562 236.32 105.453ZM255.633 106.578V106.086C255.633 104.227 255.898 102.516 256.43 100.953C256.961 99.375 257.742 98.0078 258.773 96.8516C259.805 95.6953 261.078 94.7969 262.594 94.1562C264.109 93.5 265.859 93.1719 267.844 93.1719C269.844 93.1719 271.602 93.5 273.117 94.1562C274.648 94.7969 275.93 95.6953 276.961 96.8516C277.992 98.0078 278.773 99.375 279.305 100.953C279.836 102.516 280.102 104.227 280.102 106.086V106.578C280.102 108.422 279.836 110.133 279.305 111.711C278.773 113.273 277.992 114.641 276.961 115.812C275.93 116.969 274.656 117.867 273.141 118.508C271.625 119.148 269.875 119.469 267.891 119.469C265.906 119.469 264.148 119.148 262.617 118.508C261.086 117.867 259.805 116.969 258.773 115.812C257.742 114.641 256.961 113.273 256.43 111.711C255.898 110.133 255.633 108.422 255.633 106.578ZM263.531 106.086V106.578C263.531 107.531 263.602 108.422 263.742 109.25C263.883 110.078 264.117 110.805 264.445 111.43C264.773 112.039 265.219 112.516 265.781 112.859C266.344 113.203 267.047 113.375 267.891 113.375C268.719 113.375 269.406 113.203 269.953 112.859C270.516 112.516 270.961 112.039 271.289 111.43C271.617 110.805 271.852 110.078 271.992 109.25C272.133 108.422 272.203 107.531 272.203 106.578V106.086C272.203 105.164 272.133 104.297 271.992 103.484C271.852 102.656 271.617 101.93 271.289 101.305C270.961 100.664 270.516 100.164 269.953 99.8047C269.391 99.4453 268.688 99.2656 267.844 99.2656C267.016 99.2656 266.32 99.4453 265.758 99.8047C265.211 100.164 264.773 100.664 264.445 101.305C264.117 101.93 263.883 102.656 263.742 103.484C263.602 104.297 263.531 105.164 263.531 106.086ZM296.977 93.6406V99.125H281.695V93.6406H296.977ZM284.906 87.3359H292.805V110.727C292.805 111.398 292.883 111.922 293.039 112.297C293.195 112.656 293.461 112.914 293.836 113.07C294.227 113.211 294.742 113.281 295.383 113.281C295.836 113.281 296.211 113.273 296.508 113.258C296.805 113.227 297.086 113.188 297.352 113.141V118.789C296.68 119.008 295.977 119.172 295.242 119.281C294.508 119.406 293.727 119.469 292.898 119.469C291.211 119.469 289.766 119.203 288.562 118.672C287.375 118.141 286.469 117.305 285.844 116.164C285.219 115.023 284.906 113.539 284.906 111.711V87.3359ZM313.406 111.875C313.406 111.438 313.258 111.062 312.961 110.75C312.68 110.422 312.18 110.125 311.461 109.859C310.742 109.578 309.734 109.297 308.438 109.016C307.203 108.75 306.039 108.398 304.945 107.961C303.867 107.523 302.922 106.992 302.109 106.367C301.297 105.742 300.656 105 300.188 104.141C299.734 103.281 299.508 102.297 299.508 101.188C299.508 100.109 299.734 99.0938 300.188 98.1406C300.656 97.1719 301.336 96.3203 302.227 95.5859C303.133 94.8359 304.234 94.25 305.531 93.8281C306.828 93.3906 308.305 93.1719 309.961 93.1719C312.242 93.1719 314.211 93.5234 315.867 94.2266C317.523 94.9141 318.797 95.8828 319.688 97.1328C320.594 98.3672 321.047 99.7969 321.047 101.422H313.148C313.148 100.781 313.039 100.234 312.82 99.7812C312.617 99.3281 312.281 98.9844 311.812 98.75C311.344 98.5 310.719 98.375 309.938 98.375C309.391 98.375 308.891 98.4766 308.438 98.6797C308 98.8828 307.648 99.1641 307.383 99.5234C307.117 99.8828 306.984 100.305 306.984 100.789C306.984 101.133 307.062 101.445 307.219 101.727C307.391 101.992 307.648 102.242 307.992 102.477C308.336 102.695 308.773 102.898 309.305 103.086C309.836 103.258 310.477 103.414 311.227 103.555C312.93 103.867 314.523 104.312 316.008 104.891C317.492 105.469 318.695 106.289 319.617 107.352C320.555 108.414 321.023 109.844 321.023 111.641C321.023 112.766 320.766 113.805 320.25 114.758C319.734 115.695 318.992 116.523 318.023 117.242C317.055 117.945 315.891 118.492 314.531 118.883C313.172 119.273 311.641 119.469 309.938 119.469C307.516 119.469 305.469 119.039 303.797 118.18C302.125 117.305 300.859 116.211 300 114.898C299.156 113.57 298.734 112.227 298.734 110.867H306.094C306.125 111.648 306.312 112.289 306.656 112.789C307.016 113.289 307.492 113.656 308.086 113.891C308.68 114.125 309.367 114.242 310.148 114.242C310.867 114.242 311.461 114.141 311.93 113.938C312.414 113.734 312.781 113.461 313.031 113.117C313.281 112.758 313.406 112.344 313.406 111.875Z" fill="black"/>
<path d="M1134 0H1348C1356.28 0 1363 6.71573 1363 15V148C1363 156.284 1356.28 163 1348 163H1134V0Z" fill="#05C3C5"/>
<path fill-rule="evenodd" clip-rule="evenodd" d="M1202.75 46.5018C1202.75 45.3973 1203.65 44.5018 1204.75 44.5018H1292.25C1293.35 44.5018 1294.25 45.3973 1294.25 46.5018V116.498C1294.25 117.603 1293.35 118.498 1292.25 118.498H1204.75C1203.65 118.498 1202.75 117.603 1202.75 116.498V46.5018ZM1206.75 48.5018V52.9963H1290.25V48.5018H1206.75ZM1290.25 56.9963H1235.19V114.498H1290.25V56.9963ZM1231.19 114.498V56.9963H1206.75V114.498H1231.19Z" fill="white"/>
<path fill-rule="evenodd" clip-rule="evenodd" d="M1209.72 62.3022C1209.72 61.1976 1210.62 60.3022 1211.72 60.3022H1225.72C1226.83 60.3022 1227.72 61.1976 1227.72 62.3022V81.6974C1227.72 82.802 1226.83 83.6974 1225.72 83.6974H1211.72C1210.62 83.6974 1209.72 82.802 1209.72 81.6974V62.3022ZM1213.72 64.3022V79.6974H1223.72V64.3022H1213.72ZM1239.33 63.1982C1239.33 62.0936 1240.22 61.1982 1241.33 61.1982H1284.25C1285.36 61.1982 1286.25 62.0936 1286.25 63.1982V109.407C1286.25 110.511 1285.36 111.407 1284.25 111.407H1241.33C1240.22 111.407 1239.33 110.511 1239.33 109.407V63.1982ZM1243.33 65.1982V107.407H1282.25V65.1982H1243.33ZM1209.56 93.4381C1209.56 92.3336 1210.46 91.4381 1211.56 91.4381H1220.48C1221.59 91.4381 1222.48 92.3336 1222.48 93.4381C1222.48 94.5427 1221.59 95.4381 1220.48 95.4381H1211.56C1210.46 95.4381 1209.56 94.5427 1209.56 93.4381ZM1209.56 100.438C1209.56 99.3335 1210.46 98.4381 1211.56 98.4381H1226.1C1227.21 98.4381 1228.1 99.3335 1228.1 100.438C1228.1 101.543 1227.21 102.438 1226.1 102.438H1211.56C1210.46 102.438 1209.56 101.543 1209.56 100.438ZM1209.56 107.438C1209.56 106.334 1210.46 105.438 1211.56 105.438H1220.48C1221.59 105.438 1222.48 106.334 1222.48 107.438C1222.48 108.543 1221.59 109.438 1220.48 109.438H1211.56C1210.46 109.438 1209.56 108.543 1209.56 107.438Z" fill="white"/>
</svg>
